<svg xmlns="http://www.w3.org/2000/svg" version="1.1" xmlns:xlink="http://www.w3.org/1999/xlink" xmlns:svgjs="http://svgjs.com/svgjs" width="134" height="134"><svg width="134" height="134" viewBox="0 0 134 134" fill="none" xmlns="http://www.w3.org/2000/svg">
<path fill-rule="evenodd" clip-rule="evenodd" d="M24 0C10.7452 0 0 10.7452 0 24V110C0 123.255 10.7452 134 24 134H110C123.255 134 134 123.255 134 110V24C134 10.7452 123.255 0 110 0H24ZM36.6366 36.7225L51.273 59H60.636V22.2654H51.4524V44.794L36.8159 22.2654H27.4529V59H36.6366V36.7225ZM107.731 56.3454V38.2292H92.7357V44.9017L99.1571 44.9375V51.5742C98.3679 51.7894 97.0047 52.0405 95.5698 52.0405C88.682 52.0405 84.3413 48.0944 84.3413 40.3816C84.3413 32.9557 89.2201 29.2249 96.1796 29.2249C99.8028 29.2249 103.283 30.4446 104.61 30.9109L106.691 24.095C104.359 22.9111 100.233 21.5479 95.5339 21.5479C82.5118 21.5479 74.4761 29.476 74.4761 40.8838C74.4761 52.0046 81.9019 59.7175 94.1707 59.7175C99.3724 59.7175 104.574 58.2467 107.731 56.3454ZM36.4572 95.5654V76.2654H26.9507V98.6147C26.9507 108.301 33.0492 113.717 42.8427 113.717C52.7079 113.717 59.2011 108.049 59.2011 98.5429V76.2654H49.6587V96.0676C49.6587 103.35 47.9009 106.579 43.1656 106.579C38.3226 106.579 36.4572 103.458 36.4572 95.5654ZM110.027 113L96.1079 94.0587L108.987 76.2654H98.3679L90.5475 87.7091L82.727 76.2654H72.1084L84.987 94.0587L71.0681 113H81.7584L90.5475 100.444L99.3365 113H110.027Z" fill="#26D97F"></path>
</svg><style>@media (prefers-color-scheme: light) { :root { filter: none; } }
</style></svg>