<?xml version="1.0" encoding="UTF-8"?>
<svg xmlns="http://www.w3.org/2000/svg" version="1.1" xmlns:xlink="http://www.w3.org/1999/xlink" xmlns:svgjs="http://svgjs.com/svgjs" width="134" height="134">
  <path fill-rule="evenodd" clip-rule="evenodd" d="M2 0C0.895431 0 0 0.89543 0 2V22C0 23.1046 0.89543 24 2 24H22C23.1046 24 24 23.1046 24 22V2C24 0.895431 23.1046 0 22 0H2ZM18.9854 6.60645V9.79492C18.4385 10.2051 17.6523 10.4395 16.8174 10.4395C14.6543 10.4395 13.3652 9.19922 13.3652 7.11426C13.3652 5.07812 14.7422 3.75 16.8906 3.75C17.5205 3.75 18.2334 3.90625 18.6289 4.13086L18.292 5.33691C17.8379 5.16602 17.3984 5.08301 16.9443 5.08301C15.7578 5.08301 15.0889 5.80566 15.0889 7.04102C15.0889 8.2959 15.7529 9.10645 16.7734 9.10645C17.0469 9.10645 17.3008 9.07227 17.5254 9.01367V7.79297H16.4463V6.60645H18.9854ZM8.70508 10.3418L6.32715 6.3916V10.3418H4.75V3.84766H6.41016L8.78809 7.80273V3.84766H10.3652V10.3418H8.70508ZM6.52441 17.3213V13.4395H4.92285V17.3701C4.92285 19.0889 5.9043 20.0312 7.57422 20.0312C9.24414 20.0312 10.2939 19.0449 10.2939 17.3701V13.4395H8.69238V17.4336C8.69238 18.3955 8.29199 18.7715 7.62793 18.7715C6.96387 18.7715 6.52441 18.3955 6.52441 17.3213ZM13.1377 13.4883H14.9395L16.1797 15.4951L17.4248 13.4883H19.2266L17.1318 16.6133L19.4414 19.9824H17.6299L16.1797 17.7461L14.7393 19.9824H12.9229L15.2324 16.6133L13.1377 13.4883Z" fill="#008542"/>
  <style>
    @media (prefers-color-scheme: dark) {
      path {
        fill: #5BE4A0;
      }
    }
  </style>
</svg>