<svg width="24" height="24" viewBox="0 0 24 24" fill="none" xmlns="http://www.w3.org/2000/svg">
<path fill-rule="evenodd" clip-rule="evenodd" d="M3 1C1.89543 1 1 1.89543 1 3V21C1 22.1046 1.89543 23 3 23H21C22.1046 23 23 22.1046 23 21V3C23 1.89543 22.1046 1 21 1H3ZM18.4032 7.05591V9.97868C17.9019 10.3547 17.1813 10.5695 16.4159 10.5695C14.4331 10.5695 13.2515 9.43262 13.2515 7.5214C13.2515 5.65495 14.5137 4.4375 16.4831 4.4375C17.0605 4.4375 17.7139 4.58073 18.0765 4.78662L17.7677 5.89217C17.3514 5.73551 16.9486 5.65942 16.5323 5.65942C15.4447 5.65942 14.8315 6.32186 14.8315 7.45426C14.8315 8.60457 15.4402 9.34757 16.3757 9.34757C16.6263 9.34757 16.859 9.31624 17.0649 9.26253V8.14355H16.0758V7.05591H18.4032ZM8.97965 10.48L6.79989 6.85897V10.48H5.35417V4.52702H6.87598L9.05575 8.15251V4.52702H10.5015V10.48H8.97965ZM6.98071 16.8778V13.3195H5.51261V16.9226C5.51261 18.4981 6.41227 19.362 7.94303 19.362C9.47379 19.362 10.4361 18.4578 10.4361 16.9226V13.3195H8.96802V16.9808C8.96802 17.8625 8.60099 18.2072 7.99227 18.2072C7.38354 18.2072 6.98071 17.8625 6.98071 16.8778ZM13.0429 13.3643H14.6945L15.8314 15.2039L16.9727 13.3643H18.6243L16.7042 16.2288L18.8213 19.3172H17.1607L15.8314 17.2673L14.511 19.3172H12.8459L14.9631 16.2288L13.0429 13.3643Z" fill="#008542"/>
</svg>
